<?xml version="1.0" encoding="UTF-8"?>
<!-- Generator: visioncortex VTracer 0.6.1 -->
<svg version="1.1" xmlns="http://www.w3.org/2000/svg" width="1280" height="766">
<path d="M0 0 C1.98430287 1.10690014 3.9686798 2.21366753 5.953125 3.3203125 C6.95666016 3.88524414 7.96019531 4.45017578 8.99414062 5.03222656 C36.42315539 20.45763467 64.36574282 34.95180277 93.07409668 47.84954834 C95.01445876 48.7221075 96.95311002 49.59839145 98.89160156 50.47509766 C130.04950916 64.54645583 161.69977422 77.297384 193.9375 88.6875 C194.71293152 88.96251343 195.48836304 89.23752686 196.28729248 89.52087402 C294.65077446 124.38369511 397.007274 146.90597938 512.625 157.9375 C513.9090271 158.05347031 513.9090271 158.05347031 515.21899414 158.17178345 C548.69181431 161.14987756 582.14067194 162.06845241 615.73152161 162.00555801 C618.8026637 161.99990303 621.87380024 161.99709189 624.94494629 161.99447632 C654.10264228 161.95839691 683.13805783 161.63476123 712.19244385 158.94073486 C715.07860093 158.67448326 717.9656624 158.42027824 720.85302734 158.16748047 C819.59098444 149.42860608 917.02167633 129.42058394 1082.68359375 71.46875 C1083.30307388 71.21083679 1083.92255402 70.95292358 1084.56080627 70.68719482 C1087.44636684 69.48502754 1090.32431185 68.26953039 1093.19165039 67.02441406 C1100.66898831 63.87040644 1108.04757285 61.40888799 1116.125 63.625 C1121.33225152 65.88994273 1125.42280156 70.65810311 1127.9375 75.6875 C1128.62345616 81.33144312 1129.0740163 86.95585343 1125.75 91.8125 C1079.00626234 144.08049757 990.21097841 175.44933066 925.9375 198.6875 C925.17955139 198.96227173 924.42160278 199.23704346 923.64068604 199.5201416 C840.51786709 229.60685662 752.74829959 246.87786942 654.9375 253.6875 C654.11743469 253.72880035 653.29736938 253.77010071 652.45245361 253.81265259 C636.98584522 254.57315141 621.54694721 254.88942827 606.0625 254.875 C604.94730988 254.87472809 603.83211975 254.87445618 602.68313599 254.87417603 C516.75631783 254.7789633 430.5605242 243.74397862 208.9375 168.6875 C208.28821533 168.38241516 207.63893066 168.07733032 206.9699707 167.76300049 C177.44670873 153.86651027 148.83337633 138.62443893 120.9375 121.6875 C119.98762207 121.11257813 119.03774414 120.53765625 118.05908203 119.9453125 C104.77599415 111.88607029 91.77431329 103.43909898 78.9375 94.6875 C77.68670654 93.83502686 77.68670654 93.83502686 76.41064453 92.96533203 C64.10069921 84.5399545 52.19472939 75.65138964 40.37695312 66.55224609 C37.41977288 64.29174342 34.43295295 62.07348565 31.44116211 59.85913086 C24.7362304 54.89272658 18.2816035 49.72340252 11.9609375 44.27734375 C9.09465051 41.82211342 6.18524716 39.43454147 3.25 37.0625 C-1.19508944 33.44440394 -5.47475772 29.67994296 -9.7109375 25.8203125 C-11.90723207 23.82832441 -14.13274685 21.87742688 -16.375 19.9375 C-20.35301093 16.46578137 -24.11892415 13.10286378 -27.0625 8.6875 C-27.29869482 4.41237372 -26.82337534 0.74729065 -24.3125 -2.75 C-15.35588135 -8.96987406 -8.52360432 -4.87052281 0 0 Z " fill="#FA9B07" transform="translate(33.0625,506.3125)"/>
<path d="M0 0 C1.08147308 -0.00953201 2.16294617 -0.01906403 3.27719116 -0.02888489 C5.02257675 -0.02751778 5.02257675 -0.02751778 6.80322266 -0.02612305 C8.0041153 -0.03040817 9.20500793 -0.0346933 10.44229126 -0.03910828 C12.98251719 -0.0448512 15.52275956 -0.04535213 18.06298828 -0.04101562 C21.94543613 -0.03785956 25.82711923 -0.06130311 29.70947266 -0.08666992 C32.1782217 -0.08894332 34.64697278 -0.08964622 37.11572266 -0.08862305 C38.27526459 -0.09783279 39.43480652 -0.10704254 40.62948608 -0.11653137 C51.22092403 -0.05588308 51.22092403 -0.05588308 55.59228516 3.2746582 C60.22812554 8.44841664 62.76820402 13.47220746 64.54858398 20.13354492 C64.79185582 20.99226637 65.03512766 21.85098782 65.28577137 22.73573112 C66.07942573 25.57593312 66.84058094 28.42307827 67.59228516 31.2746582 C67.85185879 32.25663429 68.11143242 33.23861038 68.37887192 34.25034332 C70.41026384 41.99599646 72.35355281 49.76301914 74.29150391 57.5324707 C74.92567614 60.05992129 75.56030547 62.58725722 76.19535828 65.11448669 C77.53555104 70.44993737 78.8728057 75.78611631 80.20794678 81.12283325 C82.29972855 89.48327249 84.39841768 97.84196928 86.49902344 106.20019531 C86.67337622 106.89394032 86.84772901 107.58768533 87.02736521 108.30245292 C87.90435571 111.79180314 88.78147983 115.28111973 89.65870667 118.77041054 C90.35675506 121.54705102 91.05459329 124.32374418 91.75224304 127.10048485 C97.42924994 149.69518769 103.15496279 172.27685922 108.96728516 194.8371582 C109.15114399 195.55083179 109.33500282 196.26450539 109.52443314 196.99980545 C111.13966941 203.26836014 112.75642918 209.53652104 114.37559509 215.80406189 C116.88492367 225.51905338 119.3782998 235.23806766 121.8659935 244.95862007 C123.06996948 249.66156819 124.27591589 254.3640114 125.4819355 259.06643581 C126.43726044 262.79192763 127.39146861 266.51769735 128.34295654 270.24417114 C129.37284445 274.27743488 130.40809865 278.30930191 131.44384766 282.34106445 C131.75010071 283.5441626 132.05635376 284.74726074 132.37188721 285.98681641 C132.65167419 287.0725293 132.93146118 288.15824219 133.21972656 289.27685547 C133.46220123 290.22391861 133.7046759 291.17098175 133.95449829 292.14674377 C134.3981574 294.23863806 134.3981574 294.23863806 135.59228516 295.2746582 C135.81619934 294.32080231 136.04011353 293.36694641 136.27081299 292.38418579 C138.44377651 283.12828616 140.61810069 273.87270696 142.79356766 264.6173954 C143.91036296 259.86592551 145.02677167 255.11436569 146.14208984 250.36254883 C150.88030676 230.17668089 155.64874882 209.99889466 160.50633812 189.84139061 C165.43662773 169.38007272 170.2747263 148.89840328 175.0657773 128.40414333 C175.93503002 124.68670406 176.80524686 120.96949052 177.67538452 117.2522583 C178.37624459 114.25778216 179.07705197 111.26329369 179.77783203 108.26879883 C179.95199119 107.52461118 180.12615035 106.78042354 180.30558705 106.01368475 C182.27481488 97.59834492 184.24136239 89.18239086 186.20239258 80.76513672 C187.79660252 73.92250244 189.39587758 67.0810731 191.00083214 60.24095076 C191.83901441 56.66782387 192.67477602 53.09417445 193.50414848 49.51899147 C203.22921748 7.6178008 203.22921748 7.6178008 210.75128174 2.92881775 C217.44335091 0.25969462 223.34795769 -0.29846439 230.51416016 -0.22143555 C231.61777893 -0.22289078 232.72139771 -0.22434601 233.85845947 -0.22584534 C236.17454692 -0.22419547 238.49064638 -0.21273751 240.80664062 -0.19189453 C244.34633883 -0.16280849 247.88454863 -0.17133215 251.42431641 -0.18432617 C253.68343824 -0.17809164 255.94255538 -0.16970294 258.20166016 -0.15893555 C259.78149689 -0.163339 259.78149689 -0.163339 261.39324951 -0.16783142 C267.74747432 -0.0862815 272.59319819 0.38664854 277.38525391 5.0012207 C277.84544922 5.62770508 278.30564453 6.25418945 278.77978516 6.8996582 C279.24771484 7.51067383 279.71564453 8.12168945 280.19775391 8.7512207 C284.76889364 17.02280689 286.26249671 26.88954758 288.38134766 36.02075195 C288.75603206 37.62094532 289.1311153 39.22104533 289.50656128 40.82106018 C290.31852713 44.28477635 291.12791183 47.74908177 291.93530273 51.21386719 C293.2431015 56.82563363 294.55680155 62.43600833 295.87158203 68.04614258 C296.33124865 70.00777944 296.79090428 71.96941887 297.25054932 73.93106079 C297.48216011 74.91950611 297.7137709 75.90795143 297.95240021 76.92634964 C298.67147691 79.99615834 299.38998289 83.06610012 300.1083374 86.13607788 C303.64774738 101.2600699 307.2047755 116.37985355 310.77197266 131.49731445 C311.03107485 132.59545345 311.29017704 133.69359245 311.55713081 134.82500839 C313.92934908 144.87845311 316.30277801 154.93161187 318.67684937 164.98461914 C320.25461465 171.6658199 321.83188398 178.34713757 323.40869141 185.02856445 C323.6668054 186.12220432 323.9249194 187.21584419 324.19085503 188.34262466 C327.75756428 203.45817502 331.30400912 218.57834768 334.83355331 233.70261765 C336.23418073 239.70210504 337.63771659 245.70091295 339.04109001 251.69975853 C340.3513897 257.30290708 341.65621988 262.90729332 342.95694637 268.51267147 C343.74916351 271.92114101 344.54634581 275.32843454 345.34494209 278.73541451 C345.71136419 280.30348876 346.07563694 281.87206705 346.4376049 283.44117546 C346.92814712 285.56663036 347.42612493 287.6902065 347.92602539 289.81347656 C348.2014769 290.99711288 348.47692841 292.18074921 348.76072693 293.4002533 C349.48264778 296.43695915 349.48264778 296.43695915 351.59228516 299.2746582 C351.71756592 298.74086926 351.84284668 298.20708031 351.97192383 297.65711594 C355.03302581 284.64112028 358.23737179 271.67090711 361.59228516 258.7277832 C362.06548332 256.89609988 362.53851082 255.06437247 363.01138306 253.23260498 C364.27358225 248.34533 365.53825932 243.45869954 366.80347443 238.57220459 C368.14513194 233.38875138 369.48448943 228.20470379 370.82421875 223.02075195 C374.076753 210.43781735 377.33376377 197.85604353 380.59228516 185.2746582 C380.83404984 184.34116547 381.07581451 183.40767273 381.3249054 182.44589233 C382.68776033 177.18387591 384.05088958 171.92193063 385.41431808 166.66006279 C385.85048603 164.97675744 386.28662548 163.29344472 386.72273636 161.61012459 C389.06574878 152.5667626 391.41179655 143.5242057 393.76464844 134.48339844 C394.6190027 131.19906563 395.47298037 127.91463514 396.32666016 124.63012695 C396.53793926 123.81730696 396.74921837 123.00448696 396.96689987 122.16703606 C400.02753661 110.38483838 403.0428942 98.59164009 406.03274536 86.79129028 C407.77567983 79.91277649 409.52901057 73.03692375 411.28445244 66.16159248 C412.71851556 60.54080633 414.13868754 54.91675618 415.54824066 49.2897768 C416.42481772 45.80492007 417.31490596 42.3236147 418.2085495 38.84309959 C418.61702985 37.2408507 419.02004313 35.6371952 419.41681671 34.03200722 C425.42200674 9.77240294 425.42200674 9.77240294 432.83705139 3.32188416 C439.14977087 -0.26241527 445.65596737 -0.45666911 452.76806641 -0.3894043 C453.8962529 -0.39418793 455.02443939 -0.39897156 456.18681335 -0.40390015 C458.55416267 -0.40728224 460.92155979 -0.39819935 463.28881836 -0.37719727 C466.91250974 -0.35028443 470.5331389 -0.37707003 474.15673828 -0.40893555 C476.46468781 -0.4056336 478.77263544 -0.39923184 481.08056641 -0.3894043 C482.70095573 -0.40458603 482.70095573 -0.40458603 484.3540802 -0.42007446 C488.79199669 -0.35071367 491.83708149 -0.11625863 495.81176758 1.94116211 C499.64752309 9.12248746 498.20799462 17.77927196 496.19824219 25.41430664 C495.5606383 27.49382179 494.90196757 29.56696545 494.22509766 31.6340332 C493.68769455 33.35792267 493.68769455 33.35792267 493.13943481 35.11663818 C492.36992997 37.57675463 491.59149854 40.03409418 490.80480957 42.48876953 C489.59199425 46.27556651 488.40459561 50.06946238 487.22412109 53.86645508 C484.8917799 61.35934187 482.52853031 68.84230037 480.16253662 76.32461548 C477.96444659 83.28021677 475.77460121 90.23842186 473.58447266 97.1965332 C473.33568108 97.98677887 473.0868895 98.77702454 472.83055878 99.59121704 C467.59177625 116.23550008 462.42501298 132.90176149 457.27272797 149.5729866 C449.69308768 174.09801431 442.05261308 198.60289614 434.34228516 223.0871582 C427.93098999 243.44723331 421.54077086 263.81327327 415.21969604 284.2015686 C414.10943097 287.78186768 412.99760952 291.36168033 411.88549805 294.94140625 C408.74378374 305.06092561 405.61318053 315.18333235 402.53475952 325.3223114 C401.25577167 329.53139453 399.96864839 333.73796779 398.68066406 337.94430542 C398.08958304 339.88335953 397.50268717 341.82369536 396.92041016 343.76541138 C396.1273899 346.40979611 395.32036267 349.04952985 394.51025391 351.6887207 C394.28705978 352.44733902 394.06386566 353.20595734 393.83390808 353.98756409 C391.63231537 361.06560273 388.20966448 368.45128348 381.59228516 372.2746582 C375.03609336 374.09087723 368.5850059 374.57320305 361.81494141 374.5402832 C360.9229454 374.54219666 360.0309494 374.54411011 359.11192322 374.54608154 C357.24054682 374.54743199 355.36916069 374.54381608 353.49780273 374.53540039 C350.66514612 374.52469735 347.8331254 374.53532833 345.00048828 374.5480957 C320.98481513 374.57028316 320.98481513 374.57028316 314.15478516 369.2746582 C305.60339287 360.43830421 304.23388033 346.23154699 301.53369141 334.6730957 C301.03648957 332.57139403 300.53852829 330.46987189 300.03987122 328.36851501 C298.96701619 323.8417611 297.89869071 319.31397187 296.83392334 314.78530884 C294.25226321 303.80680981 291.64701661 292.83389569 289.04399872 281.86044502 C288.28076902 278.64215426 287.51810405 275.42373037 286.75568867 272.20524663 C282.12083006 252.64239066 277.43111193 233.09314132 272.70556641 213.55200195 C272.54300047 212.8797096 272.38043454 212.20741724 272.21294236 211.51475239 C269.18162172 198.97966813 266.1447287 186.44593473 263.10745239 173.91229248 C261.33857961 166.61270084 259.57063984 159.31288366 257.80322266 152.01293945 C257.38793336 150.29838184 257.38793336 150.29838184 256.96425438 148.54918671 C253.2235242 133.10057722 249.52226881 117.64354911 245.93075562 102.15950012 C245.64584259 100.9357518 245.36092957 99.71200348 245.06738281 98.45117188 C244.82782867 97.41546555 244.58827454 96.37975922 244.34146118 95.31266785 C243.50915224 91.93754303 242.565149 88.6117869 241.59228516 85.2746582 C223.69500191 159.49556601 223.69500191 159.49556601 205.92752075 233.74761963 C204.65844829 239.07245346 203.3880629 244.3969735 202.11743164 249.72143555 C201.27959453 253.23265937 200.44179404 256.74389192 199.60400391 260.25512695 C199.39909773 261.11386414 199.19419155 261.97260132 198.9830761 262.85736084 C196.38760937 273.73554742 193.79782325 284.61506589 191.21359921 295.49592876 C189.43875991 302.96704463 187.65847519 310.43685092 185.87436771 317.90575886 C184.82385956 322.30454565 183.77594226 326.70391065 182.73464966 331.10488892 C181.77596378 335.15669874 180.81047375 339.20682461 179.83965111 343.25574303 C179.48693736 344.73219502 179.13675613 346.20925472 178.78933144 347.68696022 C178.31431726 349.70569333 177.83016972 351.72202662 177.34375 353.73803711 C176.94245377 355.42505234 176.94245377 355.42505234 176.53305054 357.14614868 C175.0361736 362.12400377 173.20006285 366.24462363 169.15478516 369.5871582 C168.57857422 370.07829102 168.00236328 370.56942383 167.40869141 371.07543945 C163.90955434 373.38562242 160.36636053 373.40318924 156.26049805 373.41992188 C154.66347801 373.42949165 154.66347801 373.42949165 153.03419495 373.43925476 C151.31691444 373.440924 151.31691444 373.440924 149.56494141 373.44262695 C148.38387314 373.44595535 147.20280487 373.44928375 145.98594666 373.45271301 C143.48860056 373.45777478 140.9912477 373.46012157 138.49389648 373.45996094 C134.67306387 373.46214774 130.85251983 373.4803126 127.03173828 373.49926758 C124.60530698 373.50220157 122.1788743 373.50418633 119.75244141 373.50512695 C118.03819725 373.51590523 118.03819725 373.51590523 116.2893219 373.52690125 C115.22148972 373.52382462 114.15365753 373.52074799 113.0534668 373.51757812 C112.11733047 373.51900314 111.18119415 373.52042816 110.21669006 373.52189636 C103.54726326 372.89358752 98.76687637 369.2903399 94.59228516 364.2746582 C88.10532811 350.78500666 84.62625162 335.61725122 80.34761047 321.31613541 C79.26514803 317.70295942 78.17610332 314.09176892 77.08740234 310.48046875 C75.69764489 305.86956936 74.30822495 301.2585708 72.92114258 296.64686584 C68.09310333 280.59667801 63.22027302 264.56018132 58.34368896 248.52468872 C56.82835459 243.54173881 55.31396349 238.55850255 53.79980469 233.57519531 C53.5473316 232.74427588 53.29485851 231.91335646 53.03473473 231.05725765 C52.52352718 229.37480475 52.01232151 227.69235127 51.50111771 226.00989723 C50.47601676 222.63624101 49.45078899 219.26262334 48.42555809 215.88900661 C45.14200037 205.08414315 41.85917969 194.27905586 38.57666016 183.47387695 C38.0769247 181.82890318 37.57718919 180.18392943 37.07745361 178.53895569 C34.84120385 171.17786108 32.60504182 163.81673984 30.36909866 156.4555521 C29.13103683 152.37961617 27.89292357 148.30369587 26.65478516 144.2277832 C26.40920616 143.41933897 26.16362717 142.61089474 25.91060638 141.77795219 C22.5033526 130.56162285 19.09380989 119.34599139 15.68261719 108.13085938 C13.77424662 101.85658591 11.86650355 95.5821217 9.95889282 89.30761719 C8.6659899 85.05517904 7.37274499 80.80284562 6.07861328 76.55078125 C3.53603757 68.19626702 0.99687198 59.84075095 -1.53001404 51.48147583 C-2.56380802 48.06157599 -3.59951314 44.64228935 -4.640625 41.22460938 C-5.7786191 37.48827512 -6.90621652 33.7488505 -8.03271484 30.0090332 C-8.36376221 28.92720764 -8.69480957 27.84538208 -9.03588867 26.73077393 C-13.54241734 11.67569487 -13.54241734 11.67569487 -11.22021484 5.8996582 C-10.97916016 5.25254883 -10.73810547 4.60543945 -10.48974609 3.9387207 C-8.01312606 0.12991155 -4.22101618 0.02046952 0 0 Z " fill="#232D3A" transform="translate(414.40771484375,14.725341796875)"/>
<path d="M0 0 C3.00102539 0.00314827 6.00104935 -0.02036026 9.00195312 -0.0456543 C26.76886177 -0.10466278 44.6536975 1.28753357 61.83789062 6.06567383 C62.78116211 6.32026367 63.72443359 6.57485352 64.69628906 6.8371582 C73.16288938 9.21506091 81.03657154 12.40607932 88.90039062 16.31567383 C89.90199219 16.7977832 90.90359375 17.27989258 91.93554688 17.77661133 C99.028038 21.38769682 104.95532552 26.05298255 110.90039062 31.31567383 C111.51398438 31.84547852 112.12757813 32.3752832 112.75976562 32.92114258 C129.8704028 48.76885177 139.1718991 71.25232957 144.08789062 93.56567383 C144.24290039 94.25443604 144.39791016 94.94319824 144.55761719 95.65283203 C148.51243895 114.87335196 148.2120351 134.42479882 148.23924446 153.94309402 C148.24756711 158.04911962 148.26850602 162.15507987 148.28845215 166.26106262 C148.33701312 176.67506865 148.36956517 187.08910248 148.40039062 197.50317383 C148.43368469 208.73759664 148.47005034 219.97196693 148.52452135 231.20631009 C148.54376966 235.26898447 148.55917804 239.33159033 148.56486511 243.39430809 C148.61457214 277.59078858 150.37552454 307.10257832 165.81835938 338.22583008 C171.76153047 350.29569062 171.76153047 350.29569062 169.90039062 356.31567383 C165.78441926 363.36393852 158.51826046 367.84472041 151.90039062 372.31567383 C151.17158691 372.81244629 150.4427832 373.30921875 149.69189453 373.82104492 C147.26602429 375.47205989 144.83469415 377.11462101 142.40039062 378.75317383 C141.61043701 379.28587891 140.8204834 379.81858398 140.0065918 380.36743164 C139.25998291 380.8646875 138.51337402 381.36194336 137.74414062 381.87426758 C136.74157227 382.54413696 136.74157227 382.54413696 135.71875 383.22753906 C130.82450132 386.15633423 125.40596955 386.04282576 119.90039062 385.31567383 C102.18798306 378.62168702 91.41645584 353.17273825 83.90039062 337.31567383 C80.84778396 339.66462879 78.20322707 341.95354521 75.77539062 344.94067383 C50.65064362 374.11779938 12.58702078 389.87992288 -25.11962891 393.10913086 C-59.76577954 395.51046163 -92.6705753 389.44987069 -119.87695312 367.02661133 C-143.9220927 346.05658205 -153.96473347 319.41962965 -156.09960938 288.31567383 C-157.98704522 257.95941405 -147.76134854 228.12424189 -127.85375977 205.29638672 C-104.24407286 179.11151565 -67.92730341 164.4465025 -33.09960938 162.31567383 C3.53478736 160.66712597 43.78830537 162.61164541 78.90039062 174.31567383 C78.80541396 168.64525819 78.69904286 162.97519966 78.58300781 157.30517578 C78.54519659 155.3843337 78.51026963 153.46343223 78.47851562 151.54248047 C78.04299762 125.49986476 77.03090705 95.35968547 57.63476562 75.49536133 C45.36211753 65.71230756 29.20833366 61.25467995 13.90039062 59.31567383 C13.01609375 59.20352539 12.13179687 59.09137695 11.22070312 58.97583008 C-31.17179619 54.59246967 -71.03700461 67.15663987 -110.12304688 82.22192383 C-114.94630642 83.99425017 -118.91492149 84.85202085 -124.09960938 84.31567383 C-127.0031844 82.69537527 -129.56437696 80.76402033 -130.75317383 77.54711914 C-131.59546416 72.12179592 -131.28442227 66.54199406 -131.28710938 61.06567383 C-131.29935547 59.76758789 -131.31160156 58.46950195 -131.32421875 57.13208008 C-131.33861295 47.7182763 -131.30718623 39.92566297 -125.09960938 32.31567383 C-104.2243522 16.22366981 -73.81796176 9.90291571 -48.59960938 4.50317383 C-47.6939624 4.30812256 -46.78831543 4.11307129 -45.85522461 3.91210938 C-30.58612499 0.81012453 -15.54709552 -0.03391819 0 0 Z M-68.09960938 236.31567383 C-79.45808174 250.89719608 -83.26291354 268.1572228 -82.09960938 286.31567383 C-80.10897022 301.7275754 -75.43749924 315.28539794 -63.41210938 325.50317383 C-58.29571482 329.39774282 -53.14145631 332.13664706 -47.09960938 334.31567383 C-46.21789062 334.63536133 -45.33617187 334.95504883 -44.42773438 335.28442383 C-19.28573562 342.62316941 12.95617457 336.76807011 35.96289062 324.94067383 C41.75753146 321.59902417 46.84910485 317.68160928 51.90039062 313.31567383 C52.65964844 312.71239258 53.41890625 312.10911133 54.20117188 311.48754883 C71.27771698 297.44880017 77.31381365 277.3109078 79.49804688 256.06958008 C80.0409134 249.46799761 80.08429443 242.87376448 80.08789062 236.25317383 C80.10013672 235.03178711 80.11238281 233.81040039 80.125 232.55200195 C80.12693359 231.38991211 80.12886719 230.22782227 80.13085938 229.03051758 C80.13496826 227.97985107 80.13907715 226.92918457 80.14331055 225.84667969 C80.15500589 223.14607823 80.15500589 223.14607823 77.90039062 221.31567383 C73.40876456 220.04479562 68.79674889 219.25195548 64.21289062 218.37817383 C63.52589081 218.24594421 62.83889099 218.1137146 62.131073 217.97747803 C21.79139753 210.29544983 -37.10642163 202.2067688 -68.09960938 236.31567383 Z " fill="#242E3B" transform="translate(214.099609375,4.684326171875)"/>
<path d="M0 0 C1.62711914 0.33741211 1.62711914 0.33741211 3.28710938 0.68164062 C47.6473306 10.14828395 47.6473306 10.14828395 62.29296875 26.1796875 C66.94791697 33.87047152 66.30707467 42.91160066 66.25 51.625 C66.25773437 52.81351563 66.26546875 54.00203125 66.2734375 55.2265625 C66.24793897 66.64990526 66.24793897 66.64990526 64 72 C59.90816091 74.72789273 56.72076 74.72184828 52 74 C47.32387609 72.52526283 42.80112419 70.73409779 38.25488281 68.90283203 C0.54701245 53.80498615 -46.49717561 44.824198 -85.625 60.375 C-90.22898564 62.48135604 -94.56513721 64.96531167 -98.84375 67.66796875 C-101 69 -101 69 -103.15625 69.92578125 C-105.49734149 71.28976464 -105.94560671 72.53974899 -107 75 C-107.80198057 76.23605587 -108.61487118 77.46508895 -109.4375 78.6875 C-115.71466839 88.7791129 -117.48439495 100.68883157 -114.875 112.3125 C-110.61674192 126.62709077 -101.86586426 133.95662334 -88.94677734 140.95288086 C-75.46095802 148.03764787 -61.27839435 152.75558146 -46.8125 157.375 C-44.7621602 158.03727464 -42.71203192 158.70020447 -40.66210938 159.36376953 C-30.64791907 162.59690795 -20.61363807 165.7516818 -10.54223633 168.80151367 C11.90313566 175.60365721 35.10092956 183.2996043 53 199 C53.74507812 199.60199219 54.49015625 200.20398438 55.2578125 200.82421875 C73.70280973 216.15220425 83.8097765 238.27712302 86.625 261.75 C88.1234354 279.26807205 86.24708186 296.26395452 81 313 C80.72542969 313.87914062 80.45085937 314.75828125 80.16796875 315.6640625 C70.48996458 342.79782762 45.06161496 363.74184331 20 376 C9.7854034 380.62820254 -0.878096 383.65576089 -11.75 386.3125 C-12.74249756 386.55508545 -13.73499512 386.7976709 -14.75756836 387.04760742 C-30.41160523 390.67963156 -45.62783907 391.40939941 -61.625 391.375 C-63.18385422 391.37318726 -63.18385422 391.37318726 -64.77420044 391.37133789 C-99.28663234 391.26267384 -134.0722618 385.63699167 -166 372 C-166.99386719 371.58234375 -167.98773437 371.1646875 -169.01171875 370.734375 C-177.43058886 366.86659394 -186.54658838 360.97352394 -190.16796875 352.15625 C-191.72211321 346.10105787 -191.32795916 339.70221563 -191.3125 333.5 C-191.32861328 332.20707031 -191.34472656 330.91414063 -191.36132812 329.58203125 C-191.36829934 316.01604921 -191.36829934 316.01604921 -186.375 310.0625 C-180.64167055 307.49758945 -175.30637866 308.69414798 -169.64015198 310.81886292 C-166.88063641 311.90856508 -164.13265419 313.02385706 -161.39071655 314.15704346 C-138.9723556 323.37032373 -116.15144153 329.44829329 -92 332 C-90.23849609 332.19529297 -90.23849609 332.19529297 -88.44140625 332.39453125 C-59.29378838 335.01886659 -24.55716187 334.83622276 0.046875 316.76171875 C9.69645661 308.49676646 14.88541479 298.7062714 16 286 C16.9059998 273.36019796 13.57145511 261.53270651 5.75 251.5625 C-12.66310471 231.8993313 -46.9359027 226.42300789 -71.79211426 218.81781006 C-103.26660046 209.18570298 -132.48661898 200.07865136 -157 177 C-157.68835938 176.38769531 -158.37671875 175.77539062 -159.0859375 175.14453125 C-177.41233021 158.15821073 -185.36347644 132.76228133 -187.18359375 108.55859375 C-187.97115853 84.14408564 -178.38417294 60.57811887 -163 42 C-162.33742188 41.16210938 -161.67484375 40.32421875 -160.9921875 39.4609375 C-142.97879709 17.88596419 -113.93116867 4.94247724 -87 -1 C-86.27345215 -1.16371094 -85.5469043 -1.32742188 -84.79833984 -1.49609375 C-57.67758764 -7.25962572 -26.96816516 -5.60224516 0 0 Z " fill="#242E3B" transform="translate(1133,8)"/>
<path d="M0 0 C5.26550393 8.2118524 4.96984393 17.45632813 4.91015625 26.88671875 C4.90839386 27.62954102 4.90663147 28.37236328 4.90481567 29.13769531 C4.70302594 67.63486294 -6.16064874 108.26158452 -24.47998047 142.11767578 C-25.77292316 144.54258326 -27.01171462 146.99205581 -28.25 149.4453125 C-33.08877677 158.97196864 -37.97168803 167.78978534 -44.58984375 176.19921875 C-45.90649949 178.05043671 -47.21891487 179.90467698 -48.52734375 181.76171875 C-51.897798 186.40104989 -55.55103855 190.65424862 -59.44140625 194.86328125 C-61.36355331 196.95317932 -63.19908147 199.09012083 -65.02734375 201.26171875 C-78.02724364 216.17069485 -78.02724364 216.17069485 -86.125 217.66796875 C-92.80724784 217.75059314 -92.80724784 217.75059314 -96.33984375 215.26171875 C-99.63527505 207.18791206 -93.01497729 196.43925962 -89.88500977 188.7958374 C-59.59537288 121.87792995 -59.59537288 121.87792995 -57.640625 51.34765625 C-60.47609545 44.92992477 -63.13573246 42.98481067 -69.5234375 40.328125 C-109.46778997 25.62249715 -161.47245837 34.79176166 -202.64404297 39.92871094 C-226.40934143 42.84632879 -226.40934143 42.84632879 -230.9831543 39.39135742 C-232.58984375 37.19921875 -232.58984375 37.19921875 -232.52734375 33.76171875 C-230.00009868 24.15818747 -222.60638635 19.88520611 -214.40966797 15.00610352 C-165.82621636 -12.95713093 -47.82096913 -43.0727878 0 0 Z " fill="#FA9B07" transform="translate(1267.58984375,491.80078125)"/>
<path d="M0 0 C4.29 0 8.58 0 13 0 C13 0.33 13 0.66 13 1 C8.71 1 4.42 1 0 1 C0 0.67 0 0.34 0 0 Z " fill="#000002" transform="translate(1065,400)"/>
<path d="M0 0 C2.64 0 5.28 0 8 0 C8 0.33 8 0.66 8 1 C5.36 1 2.72 1 0 1 C0 0.67 0 0.34 0 0 Z " fill="#000002" transform="translate(195,63)"/>
<path d="M0 0 C0.33 0 0.66 0 1 0 C1 2.31 1 4.62 1 7 C0.67 7 0.34 7 0 7 C0 4.69 0 2.38 0 0 Z " fill="#000002" transform="translate(1017,107)"/>
<path d="M0 0 C2.31 0 4.62 0 7 0 C7 0.33 7 0.66 7 1 C4.69 1 2.38 1 0 1 C0 0.67 0 0.34 0 0 Z " fill="#000002" transform="translate(209,63)"/>
<path d="M0 0 C1.65 0 3.3 0 5 0 C5 0.33 5 0.66 5 1 C3.35 1 1.7 1 0 1 C0 0.67 0 0.34 0 0 Z " fill="#000002" transform="translate(225,218)"/>
<path d="M0 0 C4 1 4 1 4 1 Z " fill="#000002" transform="translate(206,218)"/>
<path d="" fill="#000002" transform="translate(0,0)"/>
<path d="" fill="#000002" transform="translate(0,0)"/>
<path d="" fill="#000002" transform="translate(0,0)"/>
<path d="M0 0 C3 1 3 1 3 1 Z " fill="#000002" transform="translate(1111,62)"/>
<path d="M0 0 C2 1 2 1 2 1 Z " fill="#000002" transform="translate(742,389)"/>
<path d="" fill="#000002" transform="translate(0,0)"/>
<path d="" fill="#000002" transform="translate(0,0)"/>
<path d="" fill="#000002" transform="translate(0,0)"/>
<path d="M0 0 C2 1 2 1 2 1 Z " fill="#000002" transform="translate(226,64)"/>
<path d="M0 0 C2 1 2 1 2 1 Z " fill="#000002" transform="translate(184,64)"/>
<path d="M0 0 C2 1 2 1 2 1 Z " fill="#000002" transform="translate(1074,62)"/>
<path d="M0 0 C2 1 2 1 2 1 Z " fill="#000002" transform="translate(1092,61)"/>
<path d="" fill="#000002" transform="translate(0,0)"/>
<path d="" fill="#000002" transform="translate(0,0)"/>
<path d="" fill="#000002" transform="translate(0,0)"/>
<path d="" fill="#000002" transform="translate(0,0)"/>
<path d="" fill="#000002" transform="translate(0,0)"/>
<path d="" fill="#000002" transform="translate(0,0)"/>
<path d="" fill="#000002" transform="translate(0,0)"/>
<path d="" fill="#000002" transform="translate(0,0)"/>
<path d="" fill="#000002" transform="translate(0,0)"/>
<path d="" fill="#000002" transform="translate(0,0)"/>
<path d="" fill="#000002" transform="translate(0,0)"/>
<path d="" fill="#000002" transform="translate(0,0)"/>
<path d="" fill="#000002" transform="translate(0,0)"/>
<path d="" fill="#000002" transform="translate(0,0)"/>
<path d="" fill="#000002" transform="translate(0,0)"/>
<path d="" fill="#000002" transform="translate(0,0)"/>
<path d="" fill="#000002" transform="translate(0,0)"/>
</svg>
